<svg xmlns="http://www.w3.org/2000/svg" viewBox="0 0 76.417 66">
  <defs>
    <style>
      .cls-1 {
        fill: #fff;
      }
    </style>
  </defs>
  <g id="Group_3389" data-name="Group 3389" transform="translate(-61.582 -500)">
    <g id="ic_record_voice_over_24px" transform="translate(60.582 498)">
      <path id="Path_3" data-name="Path 3" class="cls-1" d="M28.789,47.158C19.515,47.158,1,51.813,1,61.053V68H56.579V61.053C56.579,51.813,38.064,47.158,28.789,47.158ZM55.745,13.672l-5.836,5.871a11.524,11.524,0,0,1,0,13.513l5.836,5.871c7.017-7.017,7.017-17.612,0-25.254ZM67.243,2,61.581,7.662c9.622,10.491,9.622,26.261,0,37.307l5.662,5.662C80.791,37.119,80.825,16.068,67.243,2Z"/>
    </g>
    <path id="ic_place_24px" class="cls-1" d="M18.922,2A13.911,13.911,0,0,0,5,15.922C5,26.363,18.922,41.776,18.922,41.776S32.843,26.363,32.843,15.922A13.911,13.911,0,0,0,18.922,2Zm0,18.894a4.972,4.972,0,1,1,4.972-4.972A4.974,4.974,0,0,1,18.922,20.894Z" transform="translate(71 509)"/>
  </g>
</svg>
