<svg xmlns="http://www.w3.org/2000/svg" viewBox="0 0 95.713 71.22">
  <defs>
    <style>
      .cls-1 {
        fill: #ef5777;
      }

      .cls-2 {
        fill: #fff;
      }
    </style>
  </defs>
  <g id="Group_3385" data-name="Group 3385" transform="translate(-959.656 -1402.023)">
    <rect id="Rectangle_680" data-name="Rectangle 680" class="cls-1" width="16" height="44" transform="translate(971.001 1408.045)"/>
    <path id="Path_404" data-name="Path 404" class="cls-2" d="M1014.723,1457.1l5.271-5.271-6.918-6.918-5.271,5.271v2.636h4.283v4.283h2.635Zm20.1-32.616a1.472,1.472,0,0,0-1.647,0l-15.814,15.814c-.659.659-.659.989,0,1.647a1.471,1.471,0,0,0,1.647,0l15.814-15.814A1.47,1.47,0,0,0,1034.819,1424.484Zm3.624,27.016v8.566a13.511,13.511,0,0,1-13.178,13.178H987.378a13.511,13.511,0,0,1-13.178-13.178v-37.887A13.511,13.511,0,0,1,987.378,1409h37.887a13.654,13.654,0,0,1,5.271.989c.329.329.659.659.659.989,0,.659,0,.988-.329,1.318l-2.306,2.306c-.329.329-.988.659-1.318.329a4.178,4.178,0,0,0-1.977-.329H987.378a7.895,7.895,0,0,0-7.577,7.577v37.887a7.895,7.895,0,0,0,7.577,7.577h37.887a7.895,7.895,0,0,0,7.578-7.577v-5.6a1.211,1.211,0,0,1,.329-.988l2.965-2.965a1.448,1.448,0,0,1,1.647-.329C1038.443,1450.511,1038.443,1450.84,1038.443,1451.5Zm-4.283-33.6,13.178,13.178-30.639,30.639h-13.178v-13.178Zm20.1,5.93-4.283,4.283L1036.8,1414.93l4.283-4.283a4.024,4.024,0,0,1,2.965-1.318,3.577,3.577,0,0,1,2.965,1.318l6.918,6.918a4.024,4.024,0,0,1,1.318,2.965A3.162,3.162,0,0,1,1054.257,1423.825Z" transform="translate(0)"/>
    <path id="Path_345" data-name="Path 345" class="cls-2" d="M292.284,1243.032v11.059a1.859,1.859,0,0,1-.763,1.716,2.329,2.329,0,0,1-1.716.763,2.07,2.07,0,0,1-1.716-.763,2.329,2.329,0,0,1-.763-1.716v-9.343h-1.716v24.024a3.053,3.053,0,0,1-6.1,0v-12.2h-1.716v12.2a3.053,3.053,0,0,1-6.1,0v-24.024h-1.335v9.343a1.859,1.859,0,0,1-.763,1.716,2.329,2.329,0,0,1-1.716.763,2.07,2.07,0,0,1-1.716-.763,2.329,2.329,0,0,1-.763-1.716v-11.059a5.21,5.21,0,0,1,1.525-3.623,4.882,4.882,0,0,1,3.623-1.525h16.969a5.209,5.209,0,0,1,3.623,1.525A4.642,4.642,0,0,1,292.284,1243.032Zm-7.627-11.821a5.86,5.86,0,1,1-1.716-4.195A5.606,5.606,0,0,1,284.657,1231.211Z" transform="translate(694.256 176.723)"/>
  </g>
</svg>
