<svg xmlns="http://www.w3.org/2000/svg" viewBox="0 0 54.419 35.71">
  <defs>
    <style>
      .cls-1 {
        fill: #fff;
      }
    </style>
  </defs>
  <g id="Group_3364" data-name="Group 3364" transform="translate(-254 -577.134)">
    <path id="ic_sms_24px" class="cls-1" d="M33.68,2H5.52a3.358,3.358,0,0,0-3.5,3.184L2,33.844l7.04-6.369H33.68a3.375,3.375,0,0,0,3.52-3.184V5.184A3.375,3.375,0,0,0,33.68,2ZM14.32,16.33H10.8V13.145h3.52Zm7.04,0H17.84V13.145h3.52Zm7.04,0H24.88V13.145H28.4Z" transform="translate(252 579)"/>
    <path id="ic_wifi_24px" class="cls-1" d="M1,10.853l2.814,2.814a17.91,17.91,0,0,1,25.327,0l2.814-2.814A21.9,21.9,0,0,0,1,10.853Zm5.628,5.628L9.442,19.3a9.953,9.953,0,0,1,14.07,0l2.814-2.814A13.944,13.944,0,0,0,6.628,16.481Z" transform="translate(312.866 576.134) rotate(90)"/>
  </g>
</svg>
