<svg xmlns="http://www.w3.org/2000/svg" viewBox="0 0 375 168.568">
  <defs>
    <style>
      .cls-1 {
        fill: #fff;
      }

      .cls-2 {
        fill: #01bbd3;
      }
    </style>
  </defs>
  <g id="Group_3367" data-name="Group 3367" transform="translate(0 -45.432)">
    <rect id="Rectangle_677" data-name="Rectangle 677" class="cls-1" width="375" height="167" transform="translate(0 47)"/>
    <path id="ic_lock_outline_24px" class="cls-2" d="M22.866,38.293a4.662,4.662,0,1,0-4.717-4.662A4.7,4.7,0,0,0,22.866,38.293Zm14.15-20.977H34.658V12.654a11.792,11.792,0,0,0-23.583,0v4.662H8.717A4.7,4.7,0,0,0,4,21.977V45.285a4.7,4.7,0,0,0,4.717,4.662h28.3a4.7,4.7,0,0,0,4.717-4.662V21.977A4.7,4.7,0,0,0,37.016,17.316Zm-21.46-4.662a7.311,7.311,0,0,1,14.621,0v4.662H15.556Zm21.46,32.631H8.717V21.977h28.3Z" transform="translate(98.041 84.624)"/>
    <path id="ic_person_add_24px" class="cls-2" d="M113.69,75.561A35.78,35.78,0,1,0,77.91,39.78,35.771,35.771,0,0,0,113.69,75.561Zm0,17.89c-23.883,0-71.561,11.986-71.561,35.78v17.89H185.251v-17.89C185.251,105.437,137.574,93.451,113.69,93.451Z" transform="translate(73.558 41.432)"/>
  </g>
</svg>
