<svg xmlns="http://www.w3.org/2000/svg" viewBox="0 0 83.212 62.068">
  <defs>
    <style>
      .cls-1 {
        fill: #0fbcf9;
      }
    </style>
  </defs>
  <g id="Group_3368" data-name="Group 3368" transform="translate(-254 -491.071)">
    <path id="Path_134" data-name="Path 134" class="cls-1" d="M632.524,2026.149a4.265,4.265,0,1,0-1.248,3.12A4.667,4.667,0,0,0,632.524,2026.149Zm13.227,8.86a2.067,2.067,0,0,0-.624-1.5,1.976,1.976,0,0,0-1.5-.624,2.067,2.067,0,0,0-1.5.624,1.977,1.977,0,0,0-.624,1.5,2.628,2.628,0,0,0,.624,1.622,2.372,2.372,0,0,0,1.622.624,2.627,2.627,0,0,0,1.622-.624A6.185,6.185,0,0,0,645.752,2035.009Zm0-17.72a2.066,2.066,0,0,0-.624-1.5,1.976,1.976,0,0,0-1.5-.624,2.066,2.066,0,0,0-1.5.624,1.977,1.977,0,0,0-.624,1.5,2.629,2.629,0,0,0,.624,1.622,2.372,2.372,0,0,0,1.622.624,2.628,2.628,0,0,0,1.622-.624A6.186,6.186,0,0,0,645.752,2017.289Zm-6.614,7.238v3.244a.459.459,0,0,1-.125.374c-.125.125-.125.125-.25.125l-2.62.375a9.5,9.5,0,0,1-.5,1.373c.374.5.874,1.248,1.5,2a.624.624,0,0,1,0,.749,12.521,12.521,0,0,1-1.373,1.5c-.624.624-1.123,1-1.373,1a.458.458,0,0,1-.374-.125l-2-1.5a4.472,4.472,0,0,1-1.373.5,21.116,21.116,0,0,1-.374,2.62c-.125.25-.25.374-.5.374h-3.244a.459.459,0,0,1-.374-.125c-.125-.125-.125-.125-.125-.249l-.374-2.621a5.206,5.206,0,0,1-1.248-.5l-2,1.5a.624.624,0,0,1-.749,0c-1.622-1.5-2.5-2.5-2.5-2.745a.459.459,0,0,1,.125-.374c.125-.125.374-.5.749-.874s.624-.749.873-1a12.148,12.148,0,0,1-.624-1.373l-2.621-.375a.436.436,0,0,1-.25-.125.458.458,0,0,1-.125-.374v-3.244a.459.459,0,0,1,.125-.375c.125-.125.125-.125.25-.125l2.621-.374a9.452,9.452,0,0,1,.5-1.373c-.374-.5-.874-1.248-1.5-2a.624.624,0,0,1,0-.749,12.522,12.522,0,0,1,1.373-1.5c.749-.624,1.123-1,1.373-1a.459.459,0,0,1,.374.125l2,1.5a4.474,4.474,0,0,1,1.373-.5,21.1,21.1,0,0,1,.374-2.62c.125-.25.25-.375.5-.375H629.9a.458.458,0,0,1,.374.125.387.387,0,0,1,.125.25l.374,2.621a5.206,5.206,0,0,1,1.248.5l2-1.5a.624.624,0,0,1,.749,0c1.622,1.5,2.5,2.5,2.5,2.745a.459.459,0,0,1-.125.374c-.125.125-.374.5-.749.874a9.93,9.93,0,0,0-.749,1,12.172,12.172,0,0,1,.624,1.373l2.621.375a.436.436,0,0,1,.25.125C639.138,2024.4,639.138,2024.4,639.138,2024.527Zm10.981,9.234v2.371c0,.125-.874.374-2.621.5a3.123,3.123,0,0,1-.5.873,7.872,7.872,0,0,1,.873,2.371.122.122,0,0,1-.125.125c-1.373.874-2.121,1.248-2.121,1.248-.125,0-.374-.249-.749-.874a4.528,4.528,0,0,1-.874-1.123h-1c-.125.25-.5.624-.874,1.123a6.466,6.466,0,0,0-.749.874s-.749-.374-2.121-1.248l-.125-.125a7.876,7.876,0,0,1,.874-2.371,3.125,3.125,0,0,1-.5-.873c-1.747-.125-2.621-.374-2.621-.5v-2.371c0-.125.874-.374,2.621-.5a5.423,5.423,0,0,1,.5-.874,7.872,7.872,0,0,1-.874-2.371.122.122,0,0,1,.125-.125,6.465,6.465,0,0,0,.624-.374,6.993,6.993,0,0,0,1-.624,1.366,1.366,0,0,0,.5-.25q.187,0,.749.749c.374.5.749.873.874,1.123h1a15.694,15.694,0,0,1,1.622-2h.125s.749.374,2.121,1.248l.125.125a7.878,7.878,0,0,1-.874,2.371,3.129,3.129,0,0,1,.5.874C649.371,2033.387,650.119,2033.636,650.119,2033.761Zm0-17.72v2.371c0,.125-.874.374-2.621.5a3.133,3.133,0,0,1-.5.874,7.871,7.871,0,0,1,.873,2.371.122.122,0,0,1-.125.125c-1.373.874-2.121,1.248-2.121,1.248-.125,0-.374-.25-.749-.873s-.749-.874-.874-1.123h-1c-.125.25-.5.624-.874,1.123a9.073,9.073,0,0,1-.749.873s-.749-.374-2.121-1.248l-.125-.125a7.873,7.873,0,0,1,.874-2.371,3.134,3.134,0,0,1-.5-.874c-1.747-.125-2.621-.374-2.621-.5v-2.371c0-.125.874-.374,2.621-.5a5.412,5.412,0,0,1,.5-.874,7.874,7.874,0,0,1-.874-2.371.122.122,0,0,1,.125-.125,6.465,6.465,0,0,0,.624-.374,6.972,6.972,0,0,0,1-.624,1.367,1.367,0,0,0,.5-.25q.187,0,.749.749c.374.5.749.874.874,1.123h1a15.7,15.7,0,0,1,1.622-2h.125s.749.374,2.121,1.248l.125.125a7.879,7.879,0,0,1-.874,2.371,3.125,3.125,0,0,1,.5.873C649.371,2015.792,650.119,2015.916,650.119,2016.041Z" transform="translate(-312.908 -1508.278)"/>
    <path id="ic_person_24px" class="cls-1" d="M35.034,35.034A15.517,15.517,0,1,0,19.517,19.517,15.513,15.513,0,0,0,35.034,35.034Zm0,7.758C24.676,42.792,4,47.991,4,58.309v7.758H66.068V58.309C66.068,47.991,45.391,42.792,35.034,42.792Z" transform="translate(250 487.071)"/>
  </g>
</svg>
