<svg xmlns="http://www.w3.org/2000/svg" viewBox="0 0 375 167">
  <defs>
    <style>
      .cls-1 {
        fill: #fff;
      }

      .cls-2 {
        fill: #ef5777;
      }
    </style>
  </defs>
  <g id="Group_3367" data-name="Group 3367" transform="translate(0 -47)">
    <rect id="Rectangle_677" data-name="Rectangle 677" class="cls-1" width="375" height="167" transform="translate(0 47)"/>
    <path id="ic_person_add_24px" class="cls-2" d="M113.69,75.561A35.78,35.78,0,1,0,77.91,39.78,35.771,35.771,0,0,0,113.69,75.561Zm0,17.89c-23.883,0-71.561,11.986-71.561,35.78v17.89H185.251v-17.89C185.251,105.437,137.574,93.451,113.69,93.451Z" transform="translate(73.558 55.432)"/>
    <path id="Path_352" data-name="Path 352" class="cls-2" d="M1214.817,816.617a6.6,6.6,0,0,0-1.931-4.586,6.181,6.181,0,0,0-4.586-1.931,6.6,6.6,0,0,0-4.586,1.931,6.18,6.18,0,0,0-1.931,4.586,4.865,4.865,0,0,0,.724,2.655,6.294,6.294,0,0,0-2.655-.724,6.594,6.594,0,0,0-4.586,1.931,6.517,6.517,0,0,0,4.586,11.1,6.594,6.594,0,0,0,4.586-1.931,6.181,6.181,0,0,0,1.931-4.586,4.863,4.863,0,0,0-.724-2.655,6.293,6.293,0,0,0,2.655.724,6.594,6.594,0,0,0,6.517-6.517Zm28.483,23.414c0,.483-.483,1.207-1.689,2.172a12.918,12.918,0,0,1-2.173,1.69c-.241,0-.483-.241-.966-.483s-.724-.724-1.207-1.207a7.665,7.665,0,0,1-1.207-1.448c-.482-.483-.724-.724-.724-.966l-3.138,3.138,7.241,7.241a2.949,2.949,0,0,1,.966,2.172A3.876,3.876,0,0,1,1239.2,855a3.36,3.36,0,0,1-2.655,1.207,2.353,2.353,0,0,1-2.173-.965L1211.92,832.79a20.169,20.169,0,0,1-12.31,4.345,12.813,12.813,0,0,1-8.931-3.379,12.4,12.4,0,0,1-3.379-8.931,18.622,18.622,0,0,1,3.138-10.379,24.264,24.264,0,0,1,8.207-8.207,19.2,19.2,0,0,1,10.38-3.138,12.812,12.812,0,0,1,8.931,3.379,12.4,12.4,0,0,1,3.379,8.931,21.247,21.247,0,0,1-4.345,12.31l11.828,11.828,3.138-3.138a7.143,7.143,0,0,0-.966-.724,6.4,6.4,0,0,0-1.448-1.207c-.483-.241-.724-.724-1.207-1.207-.241-.483-.482-.724-.482-.965,0-.483.482-1.207,1.689-2.172a12.911,12.911,0,0,1,2.173-1.69.888.888,0,0,1,.724.241l1.448,1.448,2.655,2.655,2.9,2.9c.966.966,1.689,1.931,2.414,2.655C1242.817,839.548,1243.3,840.031,1243.3,840.031Z" transform="translate(-1092.8 -708.303)"/>
  </g>
</svg>
