<svg xmlns="http://www.w3.org/2000/svg" viewBox="0 0 109.554 101.639">
  <defs>
    <style>
      .cls-1 {
        fill: #0fbcf9;
      }
    </style>
  </defs>
  <g id="Group_3392" data-name="Group 3392" transform="translate(-617.3 -2010.8)">
    <path id="Path_134" data-name="Path 134" class="cls-1" d="M668.12,2062.036a14.236,14.236,0,1,0-4.166,10.415A15.58,15.58,0,0,0,668.12,2062.036Zm44.155,29.576a6.9,6.9,0,0,0-2.083-5,6.6,6.6,0,0,0-5-2.083,6.9,6.9,0,0,0-5,2.083,6.6,6.6,0,0,0-2.083,5,8.774,8.774,0,0,0,2.083,5.416,7.917,7.917,0,0,0,5.415,2.083,8.771,8.771,0,0,0,5.415-2.083C711.442,2095.362,712.274,2093.695,712.274,2091.612Zm0-59.151a6.9,6.9,0,0,0-2.083-5,6.6,6.6,0,0,0-5-2.083,6.9,6.9,0,0,0-5,2.083,6.6,6.6,0,0,0-2.083,5,8.776,8.776,0,0,0,2.083,5.416,7.92,7.92,0,0,0,5.415,2.082,8.774,8.774,0,0,0,5.415-2.082C711.442,2036.21,712.274,2034.544,712.274,2032.461ZM690.2,2056.622v10.83a1.532,1.532,0,0,1-.416,1.25c-.416.416-.416.416-.834.416l-8.747,1.251a31.718,31.718,0,0,1-1.667,4.582c1.25,1.666,2.916,4.166,5,6.665a2.084,2.084,0,0,1,0,2.5,41.727,41.727,0,0,1-4.582,5c-2.083,2.082-3.749,3.332-4.582,3.332a1.531,1.531,0,0,1-1.249-.416l-6.665-5a14.921,14.921,0,0,1-4.582,1.666,70.482,70.482,0,0,1-1.25,8.748c-.416.833-.833,1.249-1.666,1.249h-10.83a1.531,1.531,0,0,1-1.25-.416c-.416-.416-.416-.416-.416-.832l-1.25-8.748a17.4,17.4,0,0,1-4.166-1.667l-6.665,5a2.084,2.084,0,0,1-2.5,0c-5.415-5-8.331-8.332-8.331-9.164a1.532,1.532,0,0,1,.416-1.25c.417-.416,1.25-1.666,2.5-2.916s2.082-2.5,2.916-3.332a40.559,40.559,0,0,1-2.083-4.582l-8.748-1.25a1.455,1.455,0,0,1-.833-.416,1.53,1.53,0,0,1-.417-1.25v-10.83a1.534,1.534,0,0,1,.417-1.25c.416-.416.416-.416.833-.416l8.748-1.25a31.554,31.554,0,0,1,1.666-4.582c-1.25-1.666-2.916-4.166-5-6.665a2.084,2.084,0,0,1,0-2.5,41.789,41.789,0,0,1,4.582-5c2.5-2.082,3.749-3.332,4.582-3.332a1.531,1.531,0,0,1,1.25.416l6.665,5a14.92,14.92,0,0,1,4.582-1.667,70.512,70.512,0,0,1,1.25-8.747c.417-.834.833-1.25,1.667-1.25h10.831a1.53,1.53,0,0,1,1.25.417,1.291,1.291,0,0,1,.417.833l1.249,8.748a17.392,17.392,0,0,1,4.166,1.666l6.665-5a2.084,2.084,0,0,1,2.5,0c5.415,5,8.331,8.332,8.331,9.164a1.532,1.532,0,0,1-.417,1.25c-.416.416-1.25,1.666-2.5,2.916a33.177,33.177,0,0,0-2.5,3.332,40.675,40.675,0,0,1,2.083,4.582l8.748,1.25a1.455,1.455,0,0,1,.833.416C690.2,2056.205,690.2,2056.205,690.2,2056.622Zm36.657,30.824v7.916c0,.416-2.916,1.249-8.748,1.666a10.43,10.43,0,0,1-1.666,2.915c2.083,4.166,2.916,7.082,2.916,7.916a.408.408,0,0,1-.416.417c-4.582,2.916-7.082,4.165-7.082,4.165-.416,0-1.249-.832-2.5-2.916a15.111,15.111,0,0,1-2.916-3.749H703.11c-.417.833-1.667,2.083-2.916,3.749a21.615,21.615,0,0,0-2.5,2.916s-2.5-1.249-7.081-4.165l-.416-.417c0-.833.833-3.75,2.916-7.916a10.429,10.429,0,0,1-1.666-2.915c-5.832-.417-8.748-1.25-8.748-1.666v-7.916c0-.416,2.916-1.249,8.748-1.666a18.1,18.1,0,0,1,1.666-2.916c-2.083-4.165-2.916-7.08-2.916-7.914a.408.408,0,0,1,.416-.416,21.653,21.653,0,0,0,2.083-1.25,23.337,23.337,0,0,0,3.333-2.083,4.565,4.565,0,0,0,1.666-.833q.625,0,2.5,2.5c1.25,1.667,2.5,2.915,2.916,3.749h3.333a52.331,52.331,0,0,1,5.415-6.664h.416s2.5,1.249,7.082,4.165l.417.417c0,.833-.834,3.748-2.917,7.914a10.437,10.437,0,0,1,1.667,2.916C724.355,2086.2,726.854,2087.03,726.854,2087.446Zm0-59.151v7.915c0,.417-2.916,1.25-8.748,1.667a10.464,10.464,0,0,1-1.666,2.916c2.083,4.164,2.916,7.08,2.916,7.914a.408.408,0,0,1-.416.416c-4.582,2.916-7.082,4.166-7.082,4.166-.416,0-1.249-.833-2.5-2.916s-2.5-2.916-2.916-3.749H703.11c-.417.833-1.667,2.083-2.916,3.749a30.245,30.245,0,0,1-2.5,2.916s-2.5-1.25-7.081-4.166l-.416-.416c0-.833.833-3.75,2.916-7.914a10.463,10.463,0,0,1-1.666-2.916c-5.832-.417-8.748-1.25-8.748-1.667V2028.3c0-.416,2.916-1.25,8.748-1.666a18.035,18.035,0,0,1,1.666-2.916c-2.083-4.166-2.916-7.081-2.916-7.915a.408.408,0,0,1,.416-.416,21.653,21.653,0,0,0,2.083-1.25,23.272,23.272,0,0,0,3.333-2.083,4.565,4.565,0,0,0,1.666-.833q.625,0,2.5,2.5c1.25,1.666,2.5,2.916,2.916,3.749h3.333a52.346,52.346,0,0,1,5.415-6.665h.416s2.5,1.249,7.082,4.165l.417.417c0,.833-.834,3.749-2.917,7.915a10.428,10.428,0,0,1,1.667,2.915C724.355,2027.462,726.854,2027.879,726.854,2028.3Z" transform="translate(0 0)"/>
  </g>
</svg>
