<svg xmlns="http://www.w3.org/2000/svg" viewBox="0 0 105.825 69.022">
  <defs>
    <style>
      .cls-1 {
        fill: #fff;
      }
    </style>
  </defs>
  <g id="Group_3382" data-name="Group 3382" transform="translate(-233 -47.563)">
    <path id="ic_directions_run_24px" class="cls-1" d="M36.877,14.305a6.413,6.413,0,1,0-6.413-6.413A6.432,6.432,0,0,0,36.877,14.305ZM25.335,58.874l3.206-14.108,6.733,6.413V70.417h6.413V46.369l-6.733-6.413,1.924-9.619a23.479,23.479,0,0,0,17.635,8.016V31.94a15.772,15.772,0,0,1-13.787-7.7l-3.206-5.13a6.613,6.613,0,0,0-5.451-3.206c-.962,0-1.6.321-2.565.321L12.83,23.283v15.07h6.413v-10.9l5.771-2.244-5.13,25.972L4.173,47.972,2.89,54.385Z" transform="translate(230.11 46.083)"/>
    <path id="ic_file_upload_24px" class="cls-1" d="M5,72.643H77.748V79.1H5Z" transform="translate(261.076 37.486)"/>
    <path id="ic_pin_drop_24px" class="cls-1" d="M41.052,18.639a16.639,16.639,0,0,0-33.278,0c0,12.479,16.639,30.505,16.639,30.505S41.052,31.119,41.052,18.639Zm-22.186,0a5.546,5.546,0,1,1,5.546,5.546A5.563,5.563,0,0,1,18.866,18.639ZM5,51.918v5.546H43.825V51.918Z" transform="translate(295 58.536)"/>
  </g>
</svg>
